<svg id="Camada_1" data-name="Camada 1" xmlns="http://www.w3.org/2000/svg" viewBox="0 0 1000 785.57"><title>email</title><path d="M855.63,107.22H144.37C64.77,107.22,0,172,0,251.59V748.41C0,828,64.77,892.78,144.37,892.78H855.63C935.24,892.78,1000,828,1000,748.41V251.59C1000,172,935.24,107.22,855.63,107.22Zm0,69a75.17,75.17,0,0,1,17.15,2L572.71,518.75a96.91,96.91,0,0,1-145.4,0L127.23,178.27a75.15,75.15,0,0,1,17.14-2ZM931,748.41a75.44,75.44,0,0,1-75.36,75.36H144.37A75.44,75.44,0,0,1,69,748.41V251.59A74.89,74.89,0,0,1,74.67,223L375.53,564.39a165.95,165.95,0,0,0,249,0L925.33,223A74.75,74.75,0,0,1,931,251.59Z" transform="translate(0 -107.22)" style="fill:#fff"/></svg>