<svg id="Camada_1" data-name="Camada 1" xmlns="http://www.w3.org/2000/svg" viewBox="0 0 980.72 980.72"><title>insta</title><path d="M759.64,180.29a57.5,57.5,0,1,0,57.49,57.49A57.49,57.49,0,0,0,759.64,180.29Z" transform="translate(-9.64 -5.18)" style="fill:#fff"/><path d="M504,254C370.85,254,262.5,362.37,262.5,495.54S370.85,737.07,504,737.07,745.55,628.71,745.55,495.54,637.2,254,504,254Zm0,396.23c-85.32,0-154.72-69.39-154.72-154.71s69.4-154.7,154.72-154.7,154.7,69.39,154.7,154.7S589.33,650.25,504,650.25Z" transform="translate(-9.64 -5.18)" style="fill:#fff"/><path d="M695.76,985.91H304.22C141.78,985.91,9.64,853.76,9.64,691.33V299.76C9.64,137.32,141.78,5.18,304.22,5.18H695.76c162.44,0,294.6,132.14,294.6,294.58V691.33C990.36,853.76,858.2,985.91,695.76,985.91ZM304.22,97.45c-111.57,0-202.32,90.75-202.32,202.31V691.33c0,111.56,90.75,202.31,202.32,202.31H695.76c111.57,0,202.33-90.75,202.33-202.31V299.76c0-111.56-90.76-202.31-202.33-202.31Z" transform="translate(-9.64 -5.18)" style="fill:#fff"/></svg>