<svg id="Camada_1" data-name="Camada 1" xmlns="http://www.w3.org/2000/svg" viewBox="0 0 974.6 976.99"><title>whatsapp</title><path d="M12.7,988.49,82.75,727.15A480.88,480.88,0,0,1,22.22,494C22.22,228,238.69,11.51,504.76,11.51S987.3,228,987.3,494,770.83,976.59,504.76,976.59a481.34,481.34,0,0,1-229.37-58.47Zm275.75-168.3L305,830.05a390.58,390.58,0,0,0,199.77,55.33c215.77,0,391.33-175.55,391.33-391.34S720.53,102.72,504.76,102.72,113.43,278.26,113.43,494a390.19,390.19,0,0,0,57.23,202.9l10.15,16.66-39.1,145.91Z" transform="translate(-12.7 -11.51)" style="fill:#3BD3E5"/><path d="M684.26,561.15c-19.86-11.88-45.71-25.14-69.1-15.57-17.95,7.35-29.41,35.45-41,49.79-6,7.37-13.1,8.52-22.26,4.83-67.39-26.84-119-71.83-156.2-133.8-6.3-9.64-5.17-17.23,2.42-26.16C409.31,427,423.42,412,426.46,394.17s-5.33-38.66-12.69-54.53c-9.42-20.28-19.94-49.2-40.25-60.67-18.69-10.55-43.28-4.64-59.91,8.91-28.72,23.38-42.58,60-42.16,96.34a136.37,136.37,0,0,0,3.79,30.57c5.8,24,16.87,46.32,29.33,67.59a534.32,534.32,0,0,0,30.62,46.56c36,49,80.88,91.51,132.8,123.31,25.94,15.89,53.88,29.82,82.82,39.38,32.44,10.72,61.35,21.88,96.4,15.23,36.68-7,72.85-29.67,87.41-65,4.31-10.47,6.47-22.12,4-33.18C733.69,585.8,702.75,572.21,684.26,561.15Z" transform="translate(-12.7 -11.51)" style="fill:#3BD3E5;fill-rule:evenodd"/></svg>